<mxfile host="app.diagrams.net" modified="2022-05-09T04:23:53.803Z" agent="5.0 (Windows NT 10.0; WOW64) AppleWebKit/537.36 (KHTML, like Gecko) Chrome/100.0.4896.88 Safari/537.36" etag="HCEAVyeDoeN9o2zYg0nd" version="17.4.4" type="github">
  <diagram id="8LqcWbh-K-a9OpP2giRa" name="Page-1">
    <mxGraphModel dx="1038" dy="575" grid="1" gridSize="10" guides="1" tooltips="1" connect="1" arrows="1" fold="1" page="1" pageScale="1" pageWidth="827" pageHeight="1169" math="1" shadow="0">
      <root>
        <mxCell id="0" />
        <mxCell id="1" parent="0" />
        <mxCell id="VyQ1B00feMUYjvhqdVCF-3" value="Replay&amp;nbsp; Buffer&amp;nbsp;" style="shape=datastore;whiteSpace=wrap;html=1;" parent="1" vertex="1">
          <mxGeometry x="357" y="430" width="73" height="60" as="geometry" />
        </mxCell>
        <mxCell id="VyQ1B00feMUYjvhqdVCF-6" value="" style="verticalLabelPosition=bottom;verticalAlign=top;html=1;shape=mxgraph.basic.rounded_frame;dx=10;fillColor=#f5f5f5;fontColor=#333333;strokeColor=#666666;" parent="1" vertex="1">
          <mxGeometry x="70" y="150" width="210" height="190" as="geometry" />
        </mxCell>
        <mxCell id="VyQ1B00feMUYjvhqdVCF-9" value="" style="shape=waypoint;sketch=0;fillStyle=solid;size=6;pointerEvents=1;points=[];fillColor=none;resizable=0;rotatable=0;perimeter=centerPerimeter;snapToPoint=1;" parent="1" vertex="1">
          <mxGeometry x="345" y="65" width="40" height="40" as="geometry" />
        </mxCell>
        <mxCell id="VyQ1B00feMUYjvhqdVCF-11" value="" style="shape=waypoint;sketch=0;fillStyle=solid;size=6;pointerEvents=1;points=[];fillColor=none;resizable=0;rotatable=0;perimeter=centerPerimeter;snapToPoint=1;" parent="1" vertex="1">
          <mxGeometry x="345" y="40" width="40" height="40" as="geometry" />
        </mxCell>
        <mxCell id="VyQ1B00feMUYjvhqdVCF-13" value="" style="shape=waypoint;sketch=0;fillStyle=solid;size=6;pointerEvents=1;points=[];fillColor=none;resizable=0;rotatable=0;perimeter=centerPerimeter;snapToPoint=1;" parent="1" vertex="1">
          <mxGeometry x="345" y="90" width="40" height="40" as="geometry" />
        </mxCell>
        <mxCell id="VyQ1B00feMUYjvhqdVCF-14" value="" style="verticalLabelPosition=bottom;verticalAlign=top;html=1;shape=mxgraph.basic.rect;fillColor2=none;strokeWidth=1;size=20;indent=5;fillColor=none;" parent="1" vertex="1">
          <mxGeometry x="354" y="50" width="60" height="20" as="geometry" />
        </mxCell>
        <mxCell id="_yVAc_mF-bW11WZnQABi-5" value="" style="edgeStyle=orthogonalEdgeStyle;rounded=0;orthogonalLoop=1;jettySize=auto;html=1;fontSize=13;endArrow=none;endFill=0;startArrow=classic;startFill=1;" parent="1" source="VyQ1B00feMUYjvhqdVCF-16" target="VyQ1B00feMUYjvhqdVCF-234" edge="1">
          <mxGeometry relative="1" as="geometry" />
        </mxCell>
        <mxCell id="VyQ1B00feMUYjvhqdVCF-16" value="" style="verticalLabelPosition=bottom;verticalAlign=top;html=1;shape=mxgraph.basic.rect;fillColor2=none;strokeWidth=1;size=20;indent=0;fillColor=none;" parent="1" vertex="1">
          <mxGeometry x="354" y="75" width="60" height="20" as="geometry" />
        </mxCell>
        <mxCell id="VyQ1B00feMUYjvhqdVCF-17" value="" style="verticalLabelPosition=bottom;verticalAlign=top;html=1;shape=mxgraph.basic.rect;fillColor2=none;strokeWidth=1;size=20;indent=5;fillColor=none;" parent="1" vertex="1">
          <mxGeometry x="354" y="100" width="60" height="20" as="geometry" />
        </mxCell>
        <mxCell id="VyQ1B00feMUYjvhqdVCF-18" value="&lt;font data-font-src=&quot;https://fonts.googleapis.com/css?family=%E5%AE%8B%E4%BD%93&quot;&gt;Agent 1&lt;/font&gt;" style="text;html=1;resizable=0;autosize=1;align=center;verticalAlign=middle;points=[];fillColor=none;strokeColor=none;rounded=0;" parent="1" vertex="1">
          <mxGeometry x="80" y="159" width="60" height="20" as="geometry" />
        </mxCell>
        <mxCell id="VyQ1B00feMUYjvhqdVCF-157" value="" style="edgeStyle=orthogonalEdgeStyle;rounded=0;jumpStyle=none;orthogonalLoop=1;jettySize=auto;html=1;fontFamily=Helvetica;fontSize=14;fontColor=#1A1A1A;opacity=70;endArrow=none;endFill=0;" parent="1" source="VyQ1B00feMUYjvhqdVCF-19" target="VyQ1B00feMUYjvhqdVCF-25" edge="1">
          <mxGeometry relative="1" as="geometry" />
        </mxCell>
        <mxCell id="VyQ1B00feMUYjvhqdVCF-19" value="&lt;span style=&quot;font-size: 14px&quot;&gt;&lt;font face=&quot;Helvetica&quot;&gt;Actor&lt;/font&gt;&lt;/span&gt;" style="rounded=1;whiteSpace=wrap;html=1;fontFamily=Comic Sans MS;fillColor=none;" parent="1" vertex="1">
          <mxGeometry x="90" y="230" width="70" height="40" as="geometry" />
        </mxCell>
        <mxCell id="VyQ1B00feMUYjvhqdVCF-152" value="" style="edgeStyle=orthogonalEdgeStyle;rounded=0;jumpStyle=none;orthogonalLoop=1;jettySize=auto;html=1;fontFamily=Helvetica;fontSize=14;fontColor=#1A1A1A;opacity=70;" parent="1" source="VyQ1B00feMUYjvhqdVCF-25" target="VyQ1B00feMUYjvhqdVCF-30" edge="1">
          <mxGeometry relative="1" as="geometry">
            <Array as="points">
              <mxPoint x="300" y="305" />
              <mxPoint x="390" y="305" />
            </Array>
          </mxGeometry>
        </mxCell>
        <mxCell id="VyQ1B00feMUYjvhqdVCF-25" value="$$(o_{1}^{t},o_{1}^{t+1},a_{1}^{t},h_{1}^{t-1},h_{1}^{t})$$" style="rounded=0;whiteSpace=wrap;html=1;fontFamily=Comic Sans MS;fontSize=14;shadow=0;sketch=0;glass=0;strokeColor=none;fillColor=default;" parent="1" vertex="1">
          <mxGeometry x="204" y="230" width="150" height="40" as="geometry" />
        </mxCell>
        <mxCell id="VyQ1B00feMUYjvhqdVCF-233" value="" style="edgeStyle=orthogonalEdgeStyle;rounded=0;jumpStyle=none;orthogonalLoop=1;jettySize=auto;html=1;fontFamily=Helvetica;fontSize=14;fontColor=#1A1A1A;startArrow=none;startFill=0;endArrow=classicThin;endFill=1;opacity=70;" parent="1" edge="1">
          <mxGeometry relative="1" as="geometry">
            <mxPoint x="488.5" y="87" as="sourcePoint" />
            <mxPoint x="420" y="87" as="targetPoint" />
            <Array as="points" />
          </mxGeometry>
        </mxCell>
        <mxCell id="VyQ1B00feMUYjvhqdVCF-27" value="" style="verticalLabelPosition=bottom;verticalAlign=top;html=1;shape=mxgraph.basic.rounded_frame;dx=10;fillColor=#eeeeee;strokeColor=#36393d;" parent="1" vertex="1">
          <mxGeometry x="530" y="152" width="210" height="190" as="geometry" />
        </mxCell>
        <mxCell id="VyQ1B00feMUYjvhqdVCF-28" value="&lt;font data-font-src=&quot;https://fonts.googleapis.com/css?family=%E5%AE%8B%E4%BD%93&quot;&gt;Agent n&lt;/font&gt;" style="text;html=1;resizable=0;autosize=1;align=center;verticalAlign=middle;points=[];fillColor=none;strokeColor=none;rounded=0;" parent="1" vertex="1">
          <mxGeometry x="667.5" y="162" width="60" height="20" as="geometry" />
        </mxCell>
        <mxCell id="VyQ1B00feMUYjvhqdVCF-154" value="" style="edgeStyle=orthogonalEdgeStyle;rounded=0;jumpStyle=none;orthogonalLoop=1;jettySize=auto;html=1;fontFamily=Helvetica;fontSize=14;fontColor=#1A1A1A;opacity=70;" parent="1" source="VyQ1B00feMUYjvhqdVCF-29" target="VyQ1B00feMUYjvhqdVCF-30" edge="1">
          <mxGeometry relative="1" as="geometry" />
        </mxCell>
        <mxCell id="VyQ1B00feMUYjvhqdVCF-29" value="$$(o_{n}^{t},o_{n}^{t+1},a_{n}^{t},h_{n}^{t-1},h_{n}^{t})$$" style="rounded=0;whiteSpace=wrap;html=1;fontFamily=Comic Sans MS;fontSize=14;shadow=0;sketch=0;glass=0;strokeColor=none;" parent="1" vertex="1">
          <mxGeometry x="430" y="230" width="150" height="40" as="geometry" />
        </mxCell>
        <mxCell id="VyQ1B00feMUYjvhqdVCF-30" value="$$(o^{t},o^{t+1},a^{t},h^{t-1},h^{t},r^{t})$$" style="rounded=0;whiteSpace=wrap;html=1;fontFamily=Comic Sans MS;fontSize=14;shadow=0;sketch=0;glass=0;strokeColor=#1A1A1A;" parent="1" vertex="1">
          <mxGeometry x="300" y="340" width="180" height="40" as="geometry" />
        </mxCell>
        <mxCell id="VyQ1B00feMUYjvhqdVCF-31" value="" style="endArrow=classic;html=1;rounded=0;fontFamily=Helvetica;fontSize=14;" parent="1" edge="1">
          <mxGeometry width="50" height="50" relative="1" as="geometry">
            <mxPoint x="389.17" y="392" as="sourcePoint" />
            <mxPoint x="389.17" y="422" as="targetPoint" />
          </mxGeometry>
        </mxCell>
        <mxCell id="VyQ1B00feMUYjvhqdVCF-163" value="" style="edgeStyle=orthogonalEdgeStyle;rounded=0;jumpStyle=none;orthogonalLoop=1;jettySize=auto;html=1;fontFamily=Helvetica;fontSize=14;fontColor=#1A1A1A;endArrow=none;endFill=0;opacity=70;startArrow=none;startFill=0;" parent="1" source="VyQ1B00feMUYjvhqdVCF-35" target="VyQ1B00feMUYjvhqdVCF-29" edge="1">
          <mxGeometry relative="1" as="geometry" />
        </mxCell>
        <mxCell id="VyQ1B00feMUYjvhqdVCF-214" value="" style="edgeStyle=orthogonalEdgeStyle;rounded=0;jumpStyle=none;orthogonalLoop=1;jettySize=auto;html=1;fontFamily=Helvetica;fontSize=14;fontColor=#1A1A1A;startArrow=none;startFill=0;endArrow=classic;endFill=1;opacity=70;entryX=1;entryY=0.5;entryDx=0;entryDy=0;" parent="1" edge="1">
          <mxGeometry relative="1" as="geometry">
            <mxPoint x="690" y="273" as="sourcePoint" />
            <mxPoint x="580" y="303" as="targetPoint" />
            <Array as="points">
              <mxPoint x="690" y="303" />
            </Array>
          </mxGeometry>
        </mxCell>
        <mxCell id="VyQ1B00feMUYjvhqdVCF-35" value="&lt;span style=&quot;font-size: 14px&quot;&gt;&lt;font face=&quot;Helvetica&quot;&gt;Actor&lt;/font&gt;&lt;/span&gt;" style="rounded=1;whiteSpace=wrap;html=1;fontFamily=Comic Sans MS;fillColor=none;" parent="1" vertex="1">
          <mxGeometry x="650" y="230" width="70" height="40" as="geometry" />
        </mxCell>
        <mxCell id="VyQ1B00feMUYjvhqdVCF-43" value="" style="verticalLabelPosition=bottom;verticalAlign=top;html=1;shape=mxgraph.basic.layered_rect;dx=10;outlineConnect=0;rounded=0;shadow=0;glass=0;sketch=0;fontFamily=Helvetica;fontSize=14;strokeColor=#1A1A1A;fillColor=none;" parent="1" vertex="1">
          <mxGeometry x="340" y="557" width="100" height="60" as="geometry" />
        </mxCell>
        <mxCell id="VyQ1B00feMUYjvhqdVCF-51" value="" style="shape=ext;double=1;rounded=1;whiteSpace=wrap;html=1;shadow=1;glass=0;sketch=0;fontFamily=Helvetica;fontSize=14;strokeColor=#666666;fillColor=#f5f5f5;noLabel=0;overflow=hidden;fontColor=#333333;" parent="1" vertex="1">
          <mxGeometry x="59" y="525" width="692" height="307" as="geometry" />
        </mxCell>
        <mxCell id="VyQ1B00feMUYjvhqdVCF-82" value="mini-batch" style="text;html=1;resizable=0;autosize=1;align=center;verticalAlign=middle;points=[];fillColor=none;strokeColor=none;rounded=0;" parent="1" vertex="1">
          <mxGeometry x="371" y="580" width="70" height="20" as="geometry" />
        </mxCell>
        <mxCell id="VyQ1B00feMUYjvhqdVCF-83" value="" style="endArrow=classic;html=1;rounded=0;fontFamily=Helvetica;fontSize=14;" parent="1" target="VyQ1B00feMUYjvhqdVCF-43" edge="1">
          <mxGeometry width="50" height="50" relative="1" as="geometry">
            <mxPoint x="389.6700000000001" y="495" as="sourcePoint" />
            <mxPoint x="389.6700000000001" y="525" as="targetPoint" />
          </mxGeometry>
        </mxCell>
        <mxCell id="VyQ1B00feMUYjvhqdVCF-155" value="&lt;font face=&quot;Helvetica&quot;&gt;Aggregation&lt;/font&gt;" style="rounded=0;whiteSpace=wrap;html=1;fontFamily=Comic Sans MS;fontSize=14;shadow=0;sketch=0;glass=0;strokeColor=#F7F7F7;" parent="1" vertex="1">
          <mxGeometry x="358" y="295" width="83" height="16" as="geometry" />
        </mxCell>
        <mxCell id="VyQ1B00feMUYjvhqdVCF-194" value="" style="edgeStyle=orthogonalEdgeStyle;rounded=0;jumpStyle=none;orthogonalLoop=1;jettySize=auto;html=1;fontFamily=Helvetica;fontSize=14;fontColor=#1A1A1A;startArrow=classic;startFill=1;endArrow=none;endFill=0;opacity=70;" parent="1" source="VyQ1B00feMUYjvhqdVCF-171" target="VyQ1B00feMUYjvhqdVCF-19" edge="1">
          <mxGeometry relative="1" as="geometry" />
        </mxCell>
        <mxCell id="VyQ1B00feMUYjvhqdVCF-171" value="" style="shape=ext;double=1;rounded=1;whiteSpace=wrap;html=1;shadow=0;glass=0;sketch=0;fontFamily=Helvetica;fontSize=14;fillColor=#f9f7ed;strokeColor=#36393d;" parent="1" vertex="1">
          <mxGeometry x="225" y="282" width="25" height="40" as="geometry" />
        </mxCell>
        <mxCell id="VyQ1B00feMUYjvhqdVCF-182" value="" style="shape=link;html=1;rounded=0;fontFamily=Helvetica;fontSize=14;fontColor=#1A1A1A;startArrow=none;startFill=0;endArrow=none;endFill=0;endSize=64;opacity=70;jumpStyle=none;" parent="1" edge="1">
          <mxGeometry width="100" relative="1" as="geometry">
            <mxPoint x="232.5" y="314" as="sourcePoint" />
            <mxPoint x="242.5" y="314" as="targetPoint" />
          </mxGeometry>
        </mxCell>
        <mxCell id="VyQ1B00feMUYjvhqdVCF-183" value="" style="shape=ext;double=1;rounded=1;whiteSpace=wrap;html=1;shadow=0;glass=0;sketch=0;fontFamily=Helvetica;fontSize=14;fillColor=#f9f7ed;strokeColor=#36393d;" parent="1" vertex="1">
          <mxGeometry x="555" y="280" width="25" height="40" as="geometry" />
        </mxCell>
        <mxCell id="VyQ1B00feMUYjvhqdVCF-184" value="" style="shape=link;html=1;rounded=0;fontFamily=Helvetica;fontSize=14;fontColor=#1A1A1A;startArrow=none;startFill=0;endArrow=none;endFill=0;endSize=64;opacity=70;jumpStyle=none;" parent="1" edge="1">
          <mxGeometry width="100" relative="1" as="geometry">
            <mxPoint x="562.5" y="312" as="sourcePoint" />
            <mxPoint x="572.5" y="312" as="targetPoint" />
          </mxGeometry>
        </mxCell>
        <mxCell id="VyQ1B00feMUYjvhqdVCF-195" value="&lt;font face=&quot;Helvetica&quot;&gt;local execution&lt;/font&gt;" style="rounded=0;whiteSpace=wrap;html=1;fontFamily=Comic Sans MS;fontSize=14;shadow=0;sketch=0;glass=0;strokeColor=#F7F7F7;" parent="1" vertex="1">
          <mxGeometry x="144" y="294" width="65" height="16" as="geometry" />
        </mxCell>
        <mxCell id="VyQ1B00feMUYjvhqdVCF-227" value="" style="edgeStyle=orthogonalEdgeStyle;rounded=0;jumpStyle=none;orthogonalLoop=1;jettySize=auto;html=1;fontFamily=Helvetica;fontSize=14;fontColor=#1A1A1A;startArrow=classic;startFill=1;endArrow=none;endFill=0;opacity=70;entryX=0.5;entryY=0;entryDx=0;entryDy=0;" parent="1" edge="1">
          <mxGeometry relative="1" as="geometry">
            <mxPoint x="220" y="188" as="sourcePoint" />
            <mxPoint x="125" y="229" as="targetPoint" />
          </mxGeometry>
        </mxCell>
        <mxCell id="_yVAc_mF-bW11WZnQABi-2" value="" style="edgeStyle=orthogonalEdgeStyle;rounded=0;orthogonalLoop=1;jettySize=auto;html=1;fontSize=13;" parent="1" source="VyQ1B00feMUYjvhqdVCF-197" target="VyQ1B00feMUYjvhqdVCF-234" edge="1">
          <mxGeometry relative="1" as="geometry">
            <Array as="points">
              <mxPoint x="235" y="136" />
              <mxPoint x="220" y="136" />
            </Array>
          </mxGeometry>
        </mxCell>
        <mxCell id="_yVAc_mF-bW11WZnQABi-117" value="" style="edgeStyle=orthogonalEdgeStyle;rounded=0;orthogonalLoop=1;jettySize=auto;html=1;fontFamily=宋体;fontSource=https%3A%2F%2Ffonts.googleapis.com%2Fcss%3Ffamily%3D%25E5%25AE%258B%25E4%25BD%2593;fontSize=13;startArrow=classic;startFill=1;endArrow=none;endFill=0;" parent="1" source="VyQ1B00feMUYjvhqdVCF-197" target="VyQ1B00feMUYjvhqdVCF-228" edge="1">
          <mxGeometry relative="1" as="geometry" />
        </mxCell>
        <mxCell id="VyQ1B00feMUYjvhqdVCF-197" value="" style="strokeWidth=2;html=1;shape=mxgraph.flowchart.direct_data;whiteSpace=wrap;rounded=0;shadow=0;glass=0;sketch=0;fontFamily=Helvetica;fontSize=14;fillColor=#f9f7ed;strokeColor=#36393d;" parent="1" vertex="1">
          <mxGeometry x="220" y="179" width="30" height="20" as="geometry" />
        </mxCell>
        <mxCell id="VyQ1B00feMUYjvhqdVCF-215" value="&lt;font face=&quot;Helvetica&quot;&gt;local execution&lt;/font&gt;" style="rounded=0;whiteSpace=wrap;html=1;fontFamily=Comic Sans MS;fontSize=14;shadow=0;sketch=0;glass=0;strokeColor=#F7F7F7;" parent="1" vertex="1">
          <mxGeometry x="608" y="294" width="65" height="16" as="geometry" />
        </mxCell>
        <mxCell id="VyQ1B00feMUYjvhqdVCF-219" value="" style="edgeStyle=orthogonalEdgeStyle;rounded=0;jumpStyle=none;orthogonalLoop=1;jettySize=auto;html=1;fontFamily=Helvetica;fontSize=14;fontColor=#1A1A1A;startArrow=classic;startFill=1;endArrow=none;endFill=0;opacity=70;" parent="1" edge="1">
          <mxGeometry relative="1" as="geometry">
            <mxPoint x="583.5" y="190" as="sourcePoint" />
            <mxPoint x="690" y="230" as="targetPoint" />
            <Array as="points">
              <mxPoint x="690" y="190" />
            </Array>
          </mxGeometry>
        </mxCell>
        <mxCell id="_yVAc_mF-bW11WZnQABi-6" value="" style="edgeStyle=orthogonalEdgeStyle;rounded=0;orthogonalLoop=1;jettySize=auto;html=1;fontSize=13;startArrow=none;startFill=0;endArrow=classic;endFill=1;" parent="1" source="VyQ1B00feMUYjvhqdVCF-216" edge="1">
          <mxGeometry relative="1" as="geometry">
            <mxPoint x="582.5" y="102.5" as="targetPoint" />
          </mxGeometry>
        </mxCell>
        <mxCell id="VyQ1B00feMUYjvhqdVCF-216" value="" style="strokeWidth=2;html=1;shape=mxgraph.flowchart.direct_data;whiteSpace=wrap;rounded=0;shadow=0;glass=0;sketch=0;fontFamily=Helvetica;fontSize=14;fillColor=#f9f7ed;strokeColor=#36393d;" parent="1" vertex="1">
          <mxGeometry x="553.5" y="180" width="30" height="20" as="geometry" />
        </mxCell>
        <mxCell id="VyQ1B00feMUYjvhqdVCF-220" value="&lt;font face=&quot;Helvetica&quot;&gt;task offloading&lt;/font&gt;" style="rounded=0;whiteSpace=wrap;html=1;fontFamily=Comic Sans MS;fontSize=14;shadow=0;sketch=0;glass=0;strokeColor=#F7F7F7;" parent="1" vertex="1">
          <mxGeometry x="602.5" y="182" width="65" height="16" as="geometry" />
        </mxCell>
        <mxCell id="VyQ1B00feMUYjvhqdVCF-228" value="&lt;font face=&quot;Helvetica&quot;&gt;task offloading&lt;/font&gt;" style="rounded=0;whiteSpace=wrap;html=1;fontFamily=Comic Sans MS;fontSize=14;shadow=0;sketch=0;glass=0;strokeColor=#F7F7F7;" parent="1" vertex="1">
          <mxGeometry x="139" y="181" width="65" height="16" as="geometry" />
        </mxCell>
        <mxCell id="VyQ1B00feMUYjvhqdVCF-234" value="&lt;font face=&quot;Helvetica&quot;&gt;data transmission&lt;/font&gt;" style="rounded=0;whiteSpace=wrap;html=1;fontFamily=Comic Sans MS;fontSize=14;shadow=0;sketch=0;glass=0;strokeColor=#F7F7F7;" parent="1" vertex="1">
          <mxGeometry x="160" y="73" width="130" height="23" as="geometry" />
        </mxCell>
        <mxCell id="VyQ1B00feMUYjvhqdVCF-237" value="" style="edgeStyle=orthogonalEdgeStyle;rounded=0;jumpStyle=none;orthogonalLoop=1;jettySize=auto;html=1;fontFamily=Helvetica;fontSize=14;fontColor=#1A1A1A;startArrow=none;startFill=0;endArrow=none;endFill=1;opacity=70;" parent="1" edge="1">
          <mxGeometry relative="1" as="geometry">
            <mxPoint x="497.5" y="87" as="sourcePoint" />
            <mxPoint x="488.5" y="87" as="targetPoint" />
            <Array as="points">
              <mxPoint x="430" y="87" />
            </Array>
          </mxGeometry>
        </mxCell>
        <mxCell id="VyQ1B00feMUYjvhqdVCF-241" value="&lt;font face=&quot;Helvetica&quot;&gt;MEC Server&lt;/font&gt;" style="rounded=0;whiteSpace=wrap;html=1;fontFamily=Comic Sans MS;fontSize=14;shadow=0;sketch=0;glass=0;strokeColor=#F7F7F7;" parent="1" vertex="1">
          <mxGeometry x="339" y="130" width="91" height="16" as="geometry" />
        </mxCell>
        <mxCell id="_yVAc_mF-bW11WZnQABi-8" value="" style="rounded=1;whiteSpace=wrap;html=1;fontSize=13;" parent="1" vertex="1">
          <mxGeometry x="89" y="557" width="165" height="243" as="geometry" />
        </mxCell>
        <mxCell id="_yVAc_mF-bW11WZnQABi-9" value="Actor" style="text;html=1;strokeColor=none;fillColor=none;align=center;verticalAlign=middle;whiteSpace=wrap;rounded=0;fontSize=13;" parent="1" vertex="1">
          <mxGeometry x="138" y="556" width="60" height="30" as="geometry" />
        </mxCell>
        <mxCell id="_yVAc_mF-bW11WZnQABi-17" value="" style="verticalLabelPosition=bottom;verticalAlign=top;html=1;shape=mxgraph.basic.diag_round_rect;dx=6;fontSize=13;" parent="1" vertex="1">
          <mxGeometry x="127.25" y="596.5" width="82.5" height="33" as="geometry" />
        </mxCell>
        <mxCell id="_yVAc_mF-bW11WZnQABi-18" value="Network Optimization" style="text;html=1;strokeColor=none;fillColor=none;align=center;verticalAlign=middle;whiteSpace=wrap;rounded=0;fontSize=13;" parent="1" vertex="1">
          <mxGeometry x="140.5" y="597.5" width="60" height="30" as="geometry" />
        </mxCell>
        <mxCell id="_yVAc_mF-bW11WZnQABi-26" value="" style="edgeStyle=orthogonalEdgeStyle;rounded=0;orthogonalLoop=1;jettySize=auto;html=1;fontSize=13;startArrow=none;startFill=0;endArrow=classic;endFill=1;" parent="1" source="_yVAc_mF-bW11WZnQABi-19" target="_yVAc_mF-bW11WZnQABi-18" edge="1">
          <mxGeometry relative="1" as="geometry">
            <Array as="points">
              <mxPoint x="147" y="648" />
              <mxPoint x="147" y="648" />
            </Array>
          </mxGeometry>
        </mxCell>
        <mxCell id="_yVAc_mF-bW11WZnQABi-33" value="" style="edgeStyle=orthogonalEdgeStyle;rounded=0;orthogonalLoop=1;jettySize=auto;html=1;fontSize=13;startArrow=classic;startFill=1;endArrow=none;endFill=0;" parent="1" edge="1">
          <mxGeometry relative="1" as="geometry">
            <mxPoint x="193.0344827586207" y="668" as="sourcePoint" />
            <mxPoint x="193.0344827586207" y="627.5" as="targetPoint" />
            <Array as="points">
              <mxPoint x="193" y="650" />
              <mxPoint x="193" y="650" />
            </Array>
          </mxGeometry>
        </mxCell>
        <mxCell id="_yVAc_mF-bW11WZnQABi-42" value="" style="edgeStyle=orthogonalEdgeStyle;rounded=0;orthogonalLoop=1;jettySize=auto;html=1;fontSize=13;startArrow=none;startFill=0;endArrow=classic;endFill=1;" parent="1" source="_yVAc_mF-bW11WZnQABi-19" target="_yVAc_mF-bW11WZnQABi-21" edge="1">
          <mxGeometry relative="1" as="geometry" />
        </mxCell>
        <mxCell id="_yVAc_mF-bW11WZnQABi-19" value="Actor" style="rounded=1;whiteSpace=wrap;html=1;fontSize=13;" parent="1" vertex="1">
          <mxGeometry x="131" y="668" width="78.75" height="33" as="geometry" />
        </mxCell>
        <mxCell id="_yVAc_mF-bW11WZnQABi-20" value="$$\theta_{i}$$" style="text;html=1;strokeColor=none;fillColor=none;align=center;verticalAlign=middle;whiteSpace=wrap;rounded=0;fontSize=13;" parent="1" vertex="1">
          <mxGeometry x="169.25" y="669.5" width="60" height="30" as="geometry" />
        </mxCell>
        <mxCell id="_yVAc_mF-bW11WZnQABi-21" value="Target Actor" style="rounded=1;whiteSpace=wrap;html=1;fontSize=13;" parent="1" vertex="1">
          <mxGeometry x="127.25" y="740" width="85.75" height="50" as="geometry" />
        </mxCell>
        <mxCell id="_yVAc_mF-bW11WZnQABi-24" value="" style="edgeStyle=orthogonalEdgeStyle;rounded=0;orthogonalLoop=1;jettySize=auto;html=1;fontSize=13;startArrow=none;startFill=0;endArrow=classic;endFill=1;entryX=1.011;entryY=0.13;entryDx=0;entryDy=0;entryPerimeter=0;" parent="1" source="_yVAc_mF-bW11WZnQABi-23" target="_yVAc_mF-bW11WZnQABi-8" edge="1">
          <mxGeometry relative="1" as="geometry" />
        </mxCell>
        <mxCell id="_yVAc_mF-bW11WZnQABi-25" value="" style="edgeStyle=orthogonalEdgeStyle;rounded=0;orthogonalLoop=1;jettySize=auto;html=1;fontSize=13;startArrow=none;startFill=0;endArrow=classic;endFill=1;entryX=0;entryY=0.128;entryDx=0;entryDy=0;entryPerimeter=0;" parent="1" source="_yVAc_mF-bW11WZnQABi-23" target="_yVAc_mF-bW11WZnQABi-59" edge="1">
          <mxGeometry relative="1" as="geometry">
            <mxPoint x="510" y="588" as="targetPoint" />
            <Array as="points" />
          </mxGeometry>
        </mxCell>
        <mxCell id="_yVAc_mF-bW11WZnQABi-23" value="" style="verticalLabelPosition=bottom;verticalAlign=top;html=1;shape=mxgraph.basic.layered_rect;dx=10;outlineConnect=0;rounded=0;shadow=0;glass=0;sketch=0;fontFamily=Helvetica;fontSize=14;strokeColor=#1A1A1A;fillColor=none;" parent="1" vertex="1">
          <mxGeometry x="354" y="559" width="100" height="60" as="geometry" />
        </mxCell>
        <mxCell id="_yVAc_mF-bW11WZnQABi-35" value="Gradient" style="text;html=1;strokeColor=none;fillColor=default;align=center;verticalAlign=middle;whiteSpace=wrap;rounded=0;shadow=0;fontSize=13;" parent="1" vertex="1">
          <mxGeometry x="130.25" y="643" width="34" height="15" as="geometry" />
        </mxCell>
        <mxCell id="_yVAc_mF-bW11WZnQABi-36" value="Update" style="text;html=1;strokeColor=none;fillColor=default;align=center;verticalAlign=middle;whiteSpace=wrap;rounded=0;shadow=0;fontSize=13;" parent="1" vertex="1">
          <mxGeometry x="182.25" y="642" width="34" height="15" as="geometry" />
        </mxCell>
        <mxCell id="_yVAc_mF-bW11WZnQABi-37" value="$$\theta_{i}$$" style="text;html=1;strokeColor=none;fillColor=none;align=center;verticalAlign=middle;whiteSpace=wrap;rounded=0;fontSize=13;" parent="1" vertex="1">
          <mxGeometry x="198" y="634.5" width="60" height="30" as="geometry" />
        </mxCell>
        <mxCell id="_yVAc_mF-bW11WZnQABi-44" value="Soft Update" style="text;html=1;strokeColor=none;fillColor=default;align=center;verticalAlign=middle;whiteSpace=wrap;rounded=0;shadow=0;fontSize=13;" parent="1" vertex="1">
          <mxGeometry x="132" y="710" width="82" height="15" as="geometry" />
        </mxCell>
        <mxCell id="_yVAc_mF-bW11WZnQABi-59" value="" style="rounded=1;whiteSpace=wrap;html=1;fontSize=13;" parent="1" vertex="1">
          <mxGeometry x="550" y="557" width="165" height="243" as="geometry" />
        </mxCell>
        <mxCell id="_yVAc_mF-bW11WZnQABi-60" value="Critic" style="text;html=1;strokeColor=none;fillColor=none;align=center;verticalAlign=middle;whiteSpace=wrap;rounded=0;fontSize=13;" parent="1" vertex="1">
          <mxGeometry x="599" y="556" width="60" height="30" as="geometry" />
        </mxCell>
        <mxCell id="_yVAc_mF-bW11WZnQABi-61" value="" style="verticalLabelPosition=bottom;verticalAlign=top;html=1;shape=mxgraph.basic.diag_round_rect;dx=6;fontSize=13;" parent="1" vertex="1">
          <mxGeometry x="588.25" y="596.5" width="82.5" height="33" as="geometry" />
        </mxCell>
        <mxCell id="_yVAc_mF-bW11WZnQABi-62" value="&lt;span&gt;Network Optimization&lt;/span&gt;" style="text;html=1;strokeColor=none;fillColor=none;align=center;verticalAlign=middle;whiteSpace=wrap;rounded=0;fontSize=13;" parent="1" vertex="1">
          <mxGeometry x="601.5" y="597.5" width="60" height="30" as="geometry" />
        </mxCell>
        <mxCell id="_yVAc_mF-bW11WZnQABi-63" value="" style="edgeStyle=orthogonalEdgeStyle;rounded=0;orthogonalLoop=1;jettySize=auto;html=1;fontSize=13;startArrow=none;startFill=0;endArrow=classic;endFill=1;" parent="1" source="_yVAc_mF-bW11WZnQABi-66" target="_yVAc_mF-bW11WZnQABi-62" edge="1">
          <mxGeometry relative="1" as="geometry">
            <Array as="points">
              <mxPoint x="608" y="648" />
              <mxPoint x="608" y="648" />
            </Array>
          </mxGeometry>
        </mxCell>
        <mxCell id="_yVAc_mF-bW11WZnQABi-64" value="" style="edgeStyle=orthogonalEdgeStyle;rounded=0;orthogonalLoop=1;jettySize=auto;html=1;fontSize=13;startArrow=classic;startFill=1;endArrow=none;endFill=0;" parent="1" edge="1">
          <mxGeometry relative="1" as="geometry">
            <mxPoint x="654.0344827586207" y="668" as="sourcePoint" />
            <mxPoint x="654.0344827586207" y="627.5" as="targetPoint" />
            <Array as="points">
              <mxPoint x="654" y="650" />
              <mxPoint x="654" y="650" />
            </Array>
          </mxGeometry>
        </mxCell>
        <mxCell id="_yVAc_mF-bW11WZnQABi-65" value="" style="edgeStyle=orthogonalEdgeStyle;rounded=0;orthogonalLoop=1;jettySize=auto;html=1;fontSize=13;startArrow=none;startFill=0;endArrow=classic;endFill=1;" parent="1" source="_yVAc_mF-bW11WZnQABi-66" target="_yVAc_mF-bW11WZnQABi-68" edge="1">
          <mxGeometry relative="1" as="geometry" />
        </mxCell>
        <mxCell id="_yVAc_mF-bW11WZnQABi-80" value="" style="edgeStyle=orthogonalEdgeStyle;rounded=0;orthogonalLoop=1;jettySize=auto;html=1;fontSize=13;startArrow=classicThin;startFill=1;endArrow=none;endFill=0;" parent="1" edge="1">
          <mxGeometry relative="1" as="geometry">
            <mxPoint x="592" y="673" as="sourcePoint" />
            <mxPoint x="500" y="673" as="targetPoint" />
            <Array as="points">
              <mxPoint x="480" y="673" />
              <mxPoint x="480" y="673" />
            </Array>
          </mxGeometry>
        </mxCell>
        <mxCell id="_yVAc_mF-bW11WZnQABi-107" value="" style="edgeStyle=orthogonalEdgeStyle;rounded=0;orthogonalLoop=1;jettySize=auto;html=1;fontSize=13;startArrow=classic;startFill=1;endArrow=none;endFill=0;" parent="1" edge="1">
          <mxGeometry relative="1" as="geometry">
            <mxPoint x="672" y="684" as="sourcePoint" />
            <mxPoint x="677" y="761.0870272412194" as="targetPoint" />
            <Array as="points">
              <mxPoint x="700" y="684" />
              <mxPoint x="700" y="761" />
            </Array>
          </mxGeometry>
        </mxCell>
        <mxCell id="_yVAc_mF-bW11WZnQABi-108" value="Target Q" style="edgeLabel;html=1;align=center;verticalAlign=middle;resizable=0;points=[];fontSize=13;" parent="_yVAc_mF-bW11WZnQABi-107" vertex="1" connectable="0">
          <mxGeometry x="0.2607" y="-1" relative="1" as="geometry">
            <mxPoint x="3" y="-14" as="offset" />
          </mxGeometry>
        </mxCell>
        <mxCell id="_yVAc_mF-bW11WZnQABi-66" value="Critic" style="rounded=1;whiteSpace=wrap;html=1;fontSize=13;" parent="1" vertex="1">
          <mxGeometry x="592" y="668" width="78.75" height="33" as="geometry" />
        </mxCell>
        <mxCell id="_yVAc_mF-bW11WZnQABi-67" value="$$\omega_{i}$$" style="text;html=1;strokeColor=none;fillColor=none;align=center;verticalAlign=middle;whiteSpace=wrap;rounded=0;fontSize=13;" parent="1" vertex="1">
          <mxGeometry x="628.25" y="669" width="60" height="30" as="geometry" />
        </mxCell>
        <mxCell id="_yVAc_mF-bW11WZnQABi-68" value="Target Critic&amp;nbsp;" style="rounded=1;whiteSpace=wrap;html=1;fontSize=13;" parent="1" vertex="1">
          <mxGeometry x="588.25" y="740" width="87.75" height="50" as="geometry" />
        </mxCell>
        <mxCell id="_yVAc_mF-bW11WZnQABi-69" value="&lt;span&gt;Gradient&lt;/span&gt;" style="text;html=1;strokeColor=none;fillColor=default;align=center;verticalAlign=middle;whiteSpace=wrap;rounded=0;shadow=0;fontSize=13;" parent="1" vertex="1">
          <mxGeometry x="591.25" y="643" width="34" height="15" as="geometry" />
        </mxCell>
        <mxCell id="_yVAc_mF-bW11WZnQABi-70" value="&lt;span&gt;Update&lt;/span&gt;" style="text;html=1;strokeColor=none;fillColor=default;align=center;verticalAlign=middle;whiteSpace=wrap;rounded=0;shadow=0;fontSize=13;" parent="1" vertex="1">
          <mxGeometry x="641.25" y="643" width="34" height="15" as="geometry" />
        </mxCell>
        <mxCell id="_yVAc_mF-bW11WZnQABi-71" value="$$\omega_{i}$$" style="text;html=1;strokeColor=none;fillColor=none;align=center;verticalAlign=middle;whiteSpace=wrap;rounded=0;fontSize=13;" parent="1" vertex="1">
          <mxGeometry x="660.5" y="634.5" width="60" height="30" as="geometry" />
        </mxCell>
        <mxCell id="_yVAc_mF-bW11WZnQABi-72" value="Soft Update" style="text;html=1;strokeColor=none;fillColor=default;align=center;verticalAlign=middle;whiteSpace=wrap;rounded=0;shadow=0;fontSize=13;" parent="1" vertex="1">
          <mxGeometry x="588.5" y="711" width="91" height="15" as="geometry" />
        </mxCell>
        <mxCell id="_yVAc_mF-bW11WZnQABi-73" value="$$\theta&#39;_{i}$$" style="text;html=1;strokeColor=none;fillColor=none;align=center;verticalAlign=middle;whiteSpace=wrap;rounded=0;fontSize=13;" parent="1" vertex="1">
          <mxGeometry x="142" y="765" width="60" height="30" as="geometry" />
        </mxCell>
        <mxCell id="_yVAc_mF-bW11WZnQABi-74" value="$$\omega&#39;_{i}$$" style="text;html=1;strokeColor=none;fillColor=none;align=center;verticalAlign=middle;whiteSpace=wrap;rounded=0;fontSize=13;" parent="1" vertex="1">
          <mxGeometry x="602.5" y="765" width="60" height="30" as="geometry" />
        </mxCell>
        <mxCell id="_yVAc_mF-bW11WZnQABi-84" value="" style="edgeStyle=orthogonalEdgeStyle;rounded=0;orthogonalLoop=1;jettySize=auto;html=1;fontSize=13;startArrow=none;startFill=0;endArrow=none;endFill=0;entryX=0.893;entryY=-0.11;entryDx=0;entryDy=0;entryPerimeter=0;" parent="1" edge="1">
          <mxGeometry relative="1" as="geometry">
            <mxPoint x="350" y="671.6896551724137" as="sourcePoint" />
            <mxPoint x="212.07999999999993" y="671.7" as="targetPoint" />
            <Array as="points">
              <mxPoint x="284" y="671" />
            </Array>
          </mxGeometry>
        </mxCell>
        <mxCell id="_yVAc_mF-bW11WZnQABi-79" value="$$a_{i}^{&#39;t}=\pi_{\theta_{i}}(o_{i}^{t},h_{i}^{t-1})$$" style="rounded=0;whiteSpace=wrap;html=1;fontFamily=Comic Sans MS;fontSize=14;shadow=0;sketch=0;glass=0;strokeColor=none;fillColor=none;" parent="1" vertex="1">
          <mxGeometry x="341" y="659.5" width="150" height="23.5" as="geometry" />
        </mxCell>
        <mxCell id="_yVAc_mF-bW11WZnQABi-89" value="&lt;span&gt;$$Q_{i}^{t}=\pi_{\omega_{i}}(o^{t},h^{t-1},\{a_{1}^{t},\dots,a_{i}^{&#39;t},\dots,a_{n}^{t}\})$$&lt;/span&gt;" style="rounded=0;whiteSpace=wrap;html=1;fontFamily=Comic Sans MS;fontSize=14;shadow=0;sketch=0;glass=0;strokeColor=none;fillColor=none;" parent="1" vertex="1">
          <mxGeometry x="263" y="683.5" width="284" height="26.5" as="geometry" />
        </mxCell>
        <mxCell id="_yVAc_mF-bW11WZnQABi-92" value="" style="edgeStyle=orthogonalEdgeStyle;rounded=0;orthogonalLoop=1;jettySize=auto;html=1;fontSize=13;startArrow=none;startFill=0;endArrow=none;endFill=0;entryX=0.893;entryY=-0.11;entryDx=0;entryDy=0;entryPerimeter=0;" parent="1" edge="1">
          <mxGeometry relative="1" as="geometry">
            <mxPoint x="330" y="758" as="sourcePoint" />
            <mxPoint x="213.07999999999993" y="758.32" as="targetPoint" />
            <Array as="points">
              <mxPoint x="285" y="757.62" />
            </Array>
          </mxGeometry>
        </mxCell>
        <mxCell id="_yVAc_mF-bW11WZnQABi-96" value="" style="edgeStyle=orthogonalEdgeStyle;rounded=0;orthogonalLoop=1;jettySize=auto;html=1;fontSize=13;startArrow=classicThin;startFill=1;endArrow=none;endFill=0;" parent="1" edge="1">
          <mxGeometry relative="1" as="geometry">
            <mxPoint x="588.5" y="759.25" as="sourcePoint" />
            <mxPoint x="500" y="759" as="targetPoint" />
            <Array as="points">
              <mxPoint x="477" y="759" />
            </Array>
          </mxGeometry>
        </mxCell>
        <mxCell id="_yVAc_mF-bW11WZnQABi-97" value="$$a^{&#39;t+1}=\pi_{\theta&#39;}(o_{i}^{t+1},h_{i}^{t})$$" style="rounded=0;whiteSpace=wrap;html=1;fontFamily=Comic Sans MS;fontSize=14;shadow=0;sketch=0;glass=0;strokeColor=none;fillColor=none;" parent="1" vertex="1">
          <mxGeometry x="330" y="747.25" width="150" height="23.5" as="geometry" />
        </mxCell>
        <mxCell id="_yVAc_mF-bW11WZnQABi-109" value="The detail of actor network" style="text;html=1;resizable=0;autosize=1;align=center;verticalAlign=middle;points=[];fillColor=none;strokeColor=none;rounded=0;" parent="1" vertex="1">
          <mxGeometry x="85" y="529" width="160" height="20" as="geometry" />
        </mxCell>
        <mxCell id="_yVAc_mF-bW11WZnQABi-115" value="" style="endArrow=classic;html=1;rounded=0;fontSize=13;exitX=1.001;exitY=0.574;exitDx=0;exitDy=0;exitPerimeter=0;" parent="1" edge="1">
          <mxGeometry width="50" height="50" relative="1" as="geometry">
            <mxPoint x="259.1650000000002" y="696.482" as="sourcePoint" />
            <mxPoint x="212.25" y="696.41" as="targetPoint" />
          </mxGeometry>
        </mxCell>
        <mxCell id="_yVAc_mF-bW11WZnQABi-116" value="" style="endArrow=none;html=1;rounded=0;fontSize=13;endFill=0;" parent="1" edge="1">
          <mxGeometry width="50" height="50" relative="1" as="geometry">
            <mxPoint x="590" y="696.41" as="sourcePoint" />
            <mxPoint x="551" y="696.4099999999997" as="targetPoint" />
            <Array as="points" />
          </mxGeometry>
        </mxCell>
        <mxCell id="ij0rFBWwsiPY9OdUR7Rd-1" value="&lt;font face=&quot;Helvetica&quot;&gt;data transmission&lt;/font&gt;" style="rounded=0;whiteSpace=wrap;html=1;fontFamily=Comic Sans MS;fontSize=14;shadow=0;sketch=0;glass=0;strokeColor=#F7F7F7;" vertex="1" parent="1">
          <mxGeometry x="502.5" y="73.5" width="130" height="23" as="geometry" />
        </mxCell>
      </root>
    </mxGraphModel>
  </diagram>
</mxfile>
